<mxfile host="Electron" agent="Mozilla/5.0 (Windows NT 10.0; Win64; x64) AppleWebKit/537.36 (KHTML, like Gecko) draw.io/28.0.6 Chrome/138.0.7204.100 Electron/37.2.3 Safari/537.36" version="28.0.6">
  <diagram name="第 1 页" id="AjvzoQ4_AbWZxMwGS9M5">
    <mxGraphModel dx="1213" dy="828" grid="1" gridSize="10" guides="1" tooltips="1" connect="1" arrows="1" fold="1" page="1" pageScale="1" pageWidth="827" pageHeight="1169" math="0" shadow="0">
      <root>
        <mxCell id="0" />
        <mxCell id="1" parent="0" />
        <mxCell id="Pv8FDM_fXN23Yp2ALLtN-2" value="" style="rounded=0;whiteSpace=wrap;html=1;" vertex="1" parent="1">
          <mxGeometry x="67.5" y="340" width="122.5" height="240" as="geometry" />
        </mxCell>
        <mxCell id="Pv8FDM_fXN23Yp2ALLtN-1" value="Actor" style="shape=umlActor;verticalLabelPosition=bottom;verticalAlign=top;html=1;outlineConnect=0;" vertex="1" parent="1">
          <mxGeometry x="80" y="360" width="95" height="190" as="geometry" />
        </mxCell>
        <mxCell id="Pv8FDM_fXN23Yp2ALLtN-4" value="" style="endArrow=classic;html=1;rounded=0;exitX=1;exitY=0.5;exitDx=0;exitDy=0;" edge="1" parent="1" source="Pv8FDM_fXN23Yp2ALLtN-2" target="Pv8FDM_fXN23Yp2ALLtN-5">
          <mxGeometry width="50" height="50" relative="1" as="geometry">
            <mxPoint x="460" y="450" as="sourcePoint" />
            <mxPoint x="260" y="460" as="targetPoint" />
          </mxGeometry>
        </mxCell>
        <mxCell id="Pv8FDM_fXN23Yp2ALLtN-8" value="" style="edgeStyle=orthogonalEdgeStyle;rounded=0;orthogonalLoop=1;jettySize=auto;html=1;" edge="1" parent="1" source="Pv8FDM_fXN23Yp2ALLtN-5" target="Pv8FDM_fXN23Yp2ALLtN-7">
          <mxGeometry relative="1" as="geometry" />
        </mxCell>
        <mxCell id="Pv8FDM_fXN23Yp2ALLtN-5" value="&lt;font style=&quot;font-size: 20px;&quot;&gt;输入学生学号&lt;/font&gt;" style="rounded=0;whiteSpace=wrap;html=1;" vertex="1" parent="1">
          <mxGeometry x="240" y="430" width="130" height="60" as="geometry" />
        </mxCell>
        <mxCell id="Pv8FDM_fXN23Yp2ALLtN-10" value="" style="edgeStyle=orthogonalEdgeStyle;rounded=0;orthogonalLoop=1;jettySize=auto;html=1;exitX=1;exitY=0.5;exitDx=0;exitDy=0;" edge="1" parent="1" source="Pv8FDM_fXN23Yp2ALLtN-7" target="Pv8FDM_fXN23Yp2ALLtN-9">
          <mxGeometry relative="1" as="geometry" />
        </mxCell>
        <mxCell id="Pv8FDM_fXN23Yp2ALLtN-7" value="&lt;font style=&quot;font-size: 20px;&quot;&gt;学生存在&lt;/font&gt;" style="rhombus;whiteSpace=wrap;html=1;rounded=0;" vertex="1" parent="1">
          <mxGeometry x="420" y="397.5" width="125" height="125" as="geometry" />
        </mxCell>
        <mxCell id="Pv8FDM_fXN23Yp2ALLtN-18" value="" style="edgeStyle=orthogonalEdgeStyle;rounded=0;orthogonalLoop=1;jettySize=auto;html=1;" edge="1" parent="1" source="Pv8FDM_fXN23Yp2ALLtN-9" target="Pv8FDM_fXN23Yp2ALLtN-17">
          <mxGeometry relative="1" as="geometry" />
        </mxCell>
        <mxCell id="Pv8FDM_fXN23Yp2ALLtN-9" value="&lt;font style=&quot;font-size: 20px;&quot;&gt;输入学科和分数&lt;/font&gt;" style="whiteSpace=wrap;html=1;rounded=0;" vertex="1" parent="1">
          <mxGeometry x="589" y="430" width="190" height="60" as="geometry" />
        </mxCell>
        <mxCell id="Pv8FDM_fXN23Yp2ALLtN-11" value="yes" style="text;html=1;align=center;verticalAlign=middle;resizable=0;points=[];autosize=1;strokeColor=none;fillColor=none;" vertex="1" parent="1">
          <mxGeometry x="549" y="430" width="40" height="30" as="geometry" />
        </mxCell>
        <mxCell id="Pv8FDM_fXN23Yp2ALLtN-13" value="" style="edgeStyle=orthogonalEdgeStyle;rounded=0;orthogonalLoop=1;jettySize=auto;html=1;exitX=0.5;exitY=1;exitDx=0;exitDy=0;" edge="1" parent="1" target="Pv8FDM_fXN23Yp2ALLtN-14" source="Pv8FDM_fXN23Yp2ALLtN-7">
          <mxGeometry relative="1" as="geometry">
            <mxPoint x="325" y="685" as="sourcePoint" />
          </mxGeometry>
        </mxCell>
        <mxCell id="Pv8FDM_fXN23Yp2ALLtN-14" value="&lt;font style=&quot;font-size: 20px;&quot;&gt;提示学生不存在&lt;/font&gt;" style="whiteSpace=wrap;html=1;rounded=0;" vertex="1" parent="1">
          <mxGeometry x="422.5" y="555" width="120" height="60" as="geometry" />
        </mxCell>
        <mxCell id="Pv8FDM_fXN23Yp2ALLtN-15" value="no" style="text;html=1;align=center;verticalAlign=middle;resizable=0;points=[];autosize=1;strokeColor=none;fillColor=none;" vertex="1" parent="1">
          <mxGeometry x="450" y="522.5" width="40" height="30" as="geometry" />
        </mxCell>
        <mxCell id="Pv8FDM_fXN23Yp2ALLtN-20" value="" style="edgeStyle=orthogonalEdgeStyle;rounded=0;orthogonalLoop=1;jettySize=auto;html=1;" edge="1" parent="1" source="Pv8FDM_fXN23Yp2ALLtN-17" target="Pv8FDM_fXN23Yp2ALLtN-19">
          <mxGeometry relative="1" as="geometry" />
        </mxCell>
        <mxCell id="Pv8FDM_fXN23Yp2ALLtN-23" value="" style="edgeStyle=orthogonalEdgeStyle;rounded=0;orthogonalLoop=1;jettySize=auto;html=1;" edge="1" parent="1" source="Pv8FDM_fXN23Yp2ALLtN-17" target="Pv8FDM_fXN23Yp2ALLtN-22">
          <mxGeometry relative="1" as="geometry" />
        </mxCell>
        <mxCell id="Pv8FDM_fXN23Yp2ALLtN-17" value="&lt;font style=&quot;font-size: 20px;&quot;&gt;学科存在&lt;/font&gt;" style="rhombus;whiteSpace=wrap;html=1;rounded=0;" vertex="1" parent="1">
          <mxGeometry x="820" y="390" width="140" height="140" as="geometry" />
        </mxCell>
        <mxCell id="Pv8FDM_fXN23Yp2ALLtN-19" value="提示分数已存在&lt;div&gt;若要修改请使用modify&lt;/div&gt;" style="whiteSpace=wrap;html=1;rounded=0;fontSize=20;" vertex="1" parent="1">
          <mxGeometry x="785" y="615" width="210" height="105" as="geometry" />
        </mxCell>
        <mxCell id="Pv8FDM_fXN23Yp2ALLtN-21" value="yes" style="text;html=1;align=center;verticalAlign=middle;resizable=0;points=[];autosize=1;strokeColor=none;fillColor=none;" vertex="1" parent="1">
          <mxGeometry x="840" y="548" width="40" height="30" as="geometry" />
        </mxCell>
        <mxCell id="Pv8FDM_fXN23Yp2ALLtN-22" value="&lt;font style=&quot;font-size: 20px;&quot;&gt;新增学科-分数键值对&lt;/font&gt;" style="whiteSpace=wrap;html=1;rounded=0;" vertex="1" parent="1">
          <mxGeometry x="1050" y="405" width="220" height="110" as="geometry" />
        </mxCell>
        <mxCell id="Pv8FDM_fXN23Yp2ALLtN-24" value="no" style="text;html=1;align=center;verticalAlign=middle;resizable=0;points=[];autosize=1;strokeColor=none;fillColor=none;" vertex="1" parent="1">
          <mxGeometry x="960" y="428" width="40" height="30" as="geometry" />
        </mxCell>
      </root>
    </mxGraphModel>
  </diagram>
</mxfile>
